<?xml version="1.0" encoding="UTF-8"?>
<svg id="Capa_1" data-name="Capa 1" xmlns="http://www.w3.org/2000/svg" viewBox="0 0 253.01 136.28">
  <defs>
    <style>
      .cls-1 {
        fill: #3f404a;
      }

      .cls-2 {
        fill: #203c83;
      }

      .cls-3 {
        fill: #3666af;
      }

      .cls-4 {
        fill: #23b0e7;
      }

      .cls-5 {
        fill: #0e0e1c;
      }
    </style>
  </defs>
  <path class="cls-2" d="M.3,93.39h13.77c1.76.36,3.17,1.12,4.25,2.28.81.78,1.22,2.25,1.22,4.38v2.02c0,2-.41,3.32-1.22,3.95l-.41.44v.18c1.15.93,1.72,2.22,1.72,3.86v8.69c-.18.35-.45.53-.81.53h-5.67c-.54,0-.81-.26-.81-.79v-8.51c-.2-.99-.78-1.49-1.72-1.49h-2.84l-.41.35v9.48c0,.64-.27.96-.81.96H.87c-.39,0-.66-.26-.81-.79l-.06-25.27.3-.26ZM7.39,98.74v5.18l.3.26h3.14c.8,0,1.3-.53,1.52-1.58v-2.81c-.24-.93-.92-1.4-2.03-1.4h-2.53l-.41.35Z"/>
  <path class="cls-2" d="M26.48,93.39h13.67l.31.26v4.12c0,.47-.34.7-1.01.7h-8.91c-.88,0-1.42.38-1.62,1.14v13.87c.34.49.67.81,1.01.96h3.54c.41,0,.61-.18.61-.53v-8.6c0-.11.2-.25.61-.44l.1.09h5.87c.54,0,.81.23.81.7v13.25c0,.45-.14.71-.41.79h-13.37c-2.46-.51-4.15-1.42-5.06-2.72-.74-1.17-1.12-2.11-1.12-2.81v-15.53c0-1.15.74-2.46,2.23-3.95,1.28-.78,2.19-1.22,2.73-1.32"/>
  <path class="cls-5" d="M47.62,98.39h15.51l.25.22-.02,3.34c-.06.38-.25.57-.58.57h-4c-.39,0-.58.17-.58.5v16.14c0,.38-.16.57-.49.57h-4.92c-.38,0-.58-.24-.58-.71v-16.21l-.46-.28h-3.89c-.55-.03-.82-.14-.82-.33v-3.3c.07-.33.26-.5.57-.5"/>
  <path class="cls-5" d="M65.13,98.39h11.16c1.42.3,2.57.91,3.44,1.85.66.63.99,1.82.99,3.55v1.64c0,1.62-.33,2.69-.99,3.2l-.33.36v.14c.93.76,1.39,1.8,1.39,3.13v7.04c-.14.28-.36.43-.66.43h-4.59c-.44,0-.66-.21-.66-.64v-6.89c-.16-.81-.63-1.21-1.4-1.21h-2.3l-.33.28v7.68c0,.52-.22.78-.66.78h-4.63c-.32,0-.54-.21-.65-.64l-.05-20.47.24-.21ZM70.88,102.72v4.2l.24.21h2.55c.65,0,1.05-.43,1.23-1.28v-2.27c-.2-.76-.74-1.14-1.64-1.14h-2.05l-.33.28Z"/>
  <path class="cls-5" d="M87.57,98.39h8.61c.51,0,.84.78.99,2.35l4.27,18.7c-.06.19-.22.28-.49.28h-5.09c-.44,0-.71-.57-.82-1.71-.36-2.05-.64-3.16-.82-3.34h-4.67c-.21,0-.56,1.59-1.07,4.76l-.33.28h-5.58l-.25-.21c1.59-6.95,2.76-12.45,3.53-16.49l1.07-4.34c.23-.19.45-.28.66-.28M89.71,110.69l.08.07h3.12l.16-.14-1.56-7.54-.08-.07h-.08c-.25,0-.5.83-.76,2.49-.59,2.86-.88,4.59-.88,5.19"/>
  <path class="cls-5" d="M108.56,98.39h9.27c.49,0,.74.26.74.78v2.99c0,.52-.3.78-.9.78h-7.71c-.43-.02-.65.17-.66.57v11.03c.05.46.32.71.81.77h7.73c.49,0,.74.17.74.5v3.34c0,.38-.16.57-.49.57h-10.5c-1.09-.21-2.11-.71-3.04-1.49-1.04-.99-1.56-2.2-1.56-3.63l-.02-11.23.02-.36c0-.98.52-2.02,1.56-3.13,1.24-.95,2.5-1.42,3.78-1.42l.25-.07Z"/>
  <path class="cls-5" d="M120.66,98.39h15.51l.24.22-.02,3.34c-.06.38-.25.57-.58.57h-4c-.39,0-.58.17-.58.5v16.14c0,.38-.16.57-.49.57h-4.92c-.38,0-.58-.24-.58-.71v-16.21l-.46-.28h-3.89c-.55-.03-.82-.14-.82-.33v-3.3c.07-.33.26-.5.57-.5"/>
  <path class="cls-5" d="M141.95,98.39h8.12c.97.17,1.93.67,2.87,1.49.82,1.01,1.23,1.81,1.23,2.42l.08,1.92v9.1c0,2.51-.22,3.77-.66,3.77-.41.84-1.28,1.62-2.62,2.35l-.9.28h-8.12c-1.54-.45-2.75-1.32-3.61-2.63-.27-.47-.41-1.18-.41-2.13v-11.87c0-2.37,1.34-3.93,4.02-4.69M143.92,103.44v10.66c0,.9.33,1.35.98,1.35,2.08.1,3.12-.14,3.12-.71l.08-.64v-10.45c.05-.71-.27-1.11-.99-1.21h-2.46c-.6.19-.85.52-.74,1"/>
  <path class="cls-5" d="M163.99,98.39h11.81c2.62.84,3.94,2.43,3.94,4.76v4.48c0,1.53-.44,2.64-1.32,3.34-.91,1.09-2.49,1.64-4.76,1.64h-3.36c-.33,0-.49.14-.49.43v6.33c-.11.24-.3.36-.58.36h-4.92c-.38,0-.58-.19-.58-.57v-20.54l.25-.21ZM169.81,102.94v5.26l.33.28h2.38c.62.08,1.06-.18,1.31-.78v-2.84l.08-1.35c-.09-.65-.52-.99-1.31-.99h-2.3c-.33,0-.49.14-.49.43"/>
  <path class="cls-5" d="M186.51,98.39h8.61c.51,0,.84.78.99,2.35l4.27,18.7c-.06.19-.22.28-.49.28h-5.08c-.44,0-.71-.57-.82-1.71-.36-2.05-.63-3.16-.82-3.34h-4.67c-.21,0-.56,1.59-1.07,4.76l-.33.28h-5.58l-.25-.21c1.59-6.95,2.76-12.45,3.53-16.49l1.07-4.34c.23-.19.45-.28.65-.28M188.64,110.69l.08.07h3.12l.16-.14-1.56-7.54-.08-.07h-.08c-.25,0-.5.83-.75,2.49-.59,2.86-.89,4.59-.89,5.19"/>
  <path class="cls-5" d="M202.14,98.39h11.16c1.42.3,2.57.91,3.45,1.85.66.63.99,1.82.99,3.55v1.64c0,1.62-.33,2.69-.99,3.2l-.33.36v.14c.93.76,1.4,1.8,1.4,3.13v7.04c-.14.28-.36.43-.66.43h-4.59c-.44,0-.66-.21-.66-.64v-6.89c-.17-.81-.63-1.21-1.4-1.21h-2.3l-.33.28v7.68c0,.52-.22.78-.66.78h-4.63c-.31,0-.53-.21-.65-.64l-.05-20.47.24-.21ZM207.88,102.72v4.2l.24.21h2.54c.65,0,1.06-.43,1.23-1.28v-2.27c-.2-.76-.75-1.14-1.64-1.14h-2.05l-.33.28Z"/>
  <path class="cls-5" d="M219.9,98.39h15.51l.25.22-.02,3.34c-.06.38-.25.57-.58.57h-4c-.38,0-.57.17-.57.5v16.14c0,.38-.17.57-.49.57h-4.92c-.38,0-.58-.24-.58-.71v-16.21l-.46-.28h-3.89c-.55-.03-.82-.14-.82-.33v-3.3c.07-.33.25-.5.57-.5"/>
  <path class="cls-5" d="M241.52,98.39h10.5l.24.22v3.34c0,.26-.11.42-.33.5h-7.47c-.88.22-1.31.62-1.31,1.21v1.49c0,.79.82,1.29,2.46,1.49.41,0,2.14.36,5.17,1.06,1.48.77,2.22,2.05,2.22,3.84v2.98c0,2.34-1.18,3.95-3.53,4.83l-2.05.36h-9.27c-.29,0-.54-.14-.74-.43v-3.56l.49-.35.58.07h7.22c.88-.15,1.31-.53,1.31-1.14v-1.78c0-.64-.35-1.07-1.06-1.28-4.92-.9-7.38-1.54-7.38-1.92-.93-.69-1.39-1.78-1.39-3.27v-3.06c0-1.95,1.12-3.4,3.36-4.34l.99-.28Z"/>
  <polygon class="cls-4" points="47.43 60.01 75.16 60.01 110.72 16.73 96.14 0 47.43 60.01"/>
  <polygon class="cls-3" points="91.37 60.01 119.1 60.01 154.56 16.73 139.98 0 91.37 60.01"/>
  <polygon class="cls-2" points="142.14 52.45 162.53 52.45 179.11 75.56 206.13 75.56 177.68 40.63 198.27 17.53 183.28 1.06 142.14 52.45"/>
  <path class="cls-1" d="M41.04,131.33h-1.75v3.49h-1.26v-8.63h2.79c.98,0,1.71.22,2.21.66.5.44.75,1.09.75,1.94,0,.53-.14,1-.41,1.39-.27.4-.65.7-1.15.9l1.93,3.67v.07h-1.35l-1.77-3.49ZM39.29,130.4h1.52c.52,0,.94-.15,1.26-.44s.47-.69.47-1.18c0-1.11-.58-1.66-1.74-1.66h-1.5v3.28Z"/>
  <polygon class="cls-1" points="50.24 130.83 46.71 130.83 46.71 133.89 50.82 133.89 50.82 134.82 45.46 134.82 45.46 126.19 50.75 126.19 50.75 127.12 46.71 127.12 46.71 129.9 50.24 129.9 50.24 130.83"/>
  <path class="cls-1" d="M53.67,131.44v3.38h-1.25v-8.63h3.17c.93,0,1.65.24,2.18.72.53.48.79,1.12.79,1.92s-.25,1.47-.76,1.92c-.5.45-1.21.68-2.13.7h-2.01ZM53.67,130.51h1.92c.56,0,.99-.14,1.28-.43.3-.29.44-.7.44-1.24s-.15-.93-.46-1.25-.72-.47-1.26-.47h-1.93v3.39Z"/>
  <path class="cls-1" d="M66.12,126.19v6.13c0,.82-.28,1.46-.82,1.92-.54.46-1.29.69-2.25.69s-1.74-.23-2.26-.68c-.52-.45-.78-1.1-.79-1.94v-6.13h1.25v6.09c0,.58.14,1.01.43,1.3.28.29.75.43,1.38.43s1.1-.14,1.39-.43c.28-.28.43-.72.43-1.3v-6.09h1.26Z"/>
  <polygon class="cls-1" points="72.82 130.83 69.3 130.83 69.3 133.89 73.4 133.89 73.4 134.82 68.05 134.82 68.05 126.19 73.33 126.19 73.33 127.12 69.3 127.12 69.3 129.9 72.82 129.9 72.82 130.83"/>
  <path class="cls-1" d="M79.35,132.64c0-.43-.14-.76-.4-.99-.27-.23-.76-.45-1.46-.67-.7-.22-1.24-.45-1.61-.68-.37-.24-.65-.51-.83-.82-.18-.31-.28-.66-.28-1.05,0-.68.26-1.25.79-1.69.53-.44,1.22-.66,2.07-.66.58,0,1.1.11,1.56.34.45.23.81.54,1.05.94.25.4.37.84.37,1.33h-1.26c0-.53-.15-.95-.44-1.24-.3-.29-.72-.44-1.28-.44-.51,0-.9.12-1.18.37-.28.25-.42.59-.42,1.03,0,.36.15.67.45.91.3.25.76.47,1.4.66.98.28,1.68.63,2.1,1.04.42.41.63.95.63,1.61,0,.7-.26,1.26-.78,1.68-.53.42-1.24.63-2.14.63-.58,0-1.11-.11-1.6-.33-.49-.22-.88-.53-1.16-.92-.28-.4-.42-.85-.42-1.36h1.26c0,.53.17.95.52,1.24s.81.45,1.4.45c.55,0,.97-.12,1.25-.37.28-.25.42-.58.42-1"/>
  <polygon class="cls-1" points="88.08 127.12 85.46 127.12 85.46 134.82 84.21 134.82 84.21 127.12 81.6 127.12 81.6 126.19 88.08 126.19 88.08 127.12"/>
  <path class="cls-1" d="M95.84,131.26c0,1.18-.29,2.08-.87,2.72-.58.64-1.4.96-2.47.96s-1.84-.31-2.43-.93c-.59-.62-.9-1.49-.93-2.62v-1.62c0-1.15.3-2.06.88-2.71.59-.65,1.41-.98,2.46-.98s1.87.31,2.45.94c.59.63.89,1.52.9,2.68v1.57ZM94.59,129.75c0-.91-.17-1.59-.52-2.03-.34-.45-.87-.67-1.58-.67s-1.21.22-1.56.68c-.35.45-.53,1.11-.54,1.99v1.55c0,.88.17,1.55.53,2.02s.88.69,1.58.69,1.22-.21,1.56-.64c.34-.43.51-1.08.53-1.96v-1.62Z"/>
  <path class="cls-1" d="M102.13,132.64c0-.43-.14-.76-.4-.99-.27-.23-.76-.45-1.46-.67-.7-.22-1.24-.45-1.61-.68-.37-.24-.65-.51-.83-.82-.18-.31-.28-.66-.28-1.05,0-.68.26-1.25.79-1.69.53-.44,1.22-.66,2.07-.66.58,0,1.1.11,1.56.34.45.23.81.54,1.05.94.25.4.37.84.37,1.33h-1.26c0-.53-.15-.95-.44-1.24-.3-.29-.72-.44-1.28-.44-.51,0-.9.12-1.18.37-.28.25-.42.59-.42,1.03,0,.36.15.67.45.91.3.25.76.47,1.4.66.98.28,1.68.63,2.1,1.04.42.41.63.95.63,1.61,0,.7-.26,1.26-.78,1.68-.53.42-1.24.63-2.14.63-.58,0-1.11-.11-1.6-.33-.49-.22-.88-.53-1.16-.92-.28-.4-.42-.85-.42-1.36h1.26c0,.53.17.95.52,1.24s.81.45,1.4.45c.55,0,.97-.12,1.25-.37.28-.25.42-.58.42-1"/>
  <path class="cls-1" d="M109.49,131.44v3.38h-1.25v-8.63h3.17c.93,0,1.65.24,2.18.72.53.48.79,1.12.79,1.92s-.25,1.47-.76,1.92c-.5.45-1.21.68-2.13.7h-2.01ZM109.49,130.51h1.92c.56,0,.99-.14,1.28-.43.3-.29.44-.7.44-1.24s-.15-.93-.46-1.25-.72-.47-1.26-.47h-1.93v3.39Z"/>
  <path class="cls-1" d="M119.7,132.56h-3.37l-.77,2.26h-1.29l3.21-8.63h1.07l3.21,8.63h-1.28l-.79-2.26ZM116.67,131.63h2.72l-1.36-3.92-1.36,3.92Z"/>
  <path class="cls-1" d="M126.14,131.33h-1.75v3.49h-1.26v-8.63h2.79c.98,0,1.72.22,2.21.66.5.44.75,1.09.75,1.94,0,.53-.14,1-.41,1.39-.27.4-.65.7-1.15.9l1.93,3.67v.07h-1.35l-1.77-3.49ZM124.39,130.4h1.52c.53,0,.95-.15,1.26-.44.31-.29.47-.69.47-1.18,0-1.11-.58-1.66-1.74-1.66h-1.5v3.28Z"/>
  <path class="cls-1" d="M135.21,132.56h-3.37l-.77,2.26h-1.29l3.21-8.63h1.07l3.21,8.63h-1.28l-.79-2.26ZM132.17,131.63h2.72l-1.36-3.92-1.35,3.92Z"/>
  <polygon class="cls-1" points="143.46 126.19 146.06 133.23 148.66 126.19 150.28 126.19 150.28 134.82 149.02 134.82 149.02 131.46 149.14 128.1 146.53 134.82 145.57 134.82 142.98 128.12 143.1 131.46 143.1 134.82 141.85 134.82 141.85 126.19 143.46 126.19"/>
  <path class="cls-1" d="M157.2,132.56h-3.37l-.77,2.26h-1.29l3.21-8.63h1.07l3.22,8.63h-1.29l-.79-2.26ZM154.16,131.63h2.72l-1.36-3.92-1.35,3.92Z"/>
  <path class="cls-1" d="M166.97,131.26c0,.76-.12,1.4-.35,1.92-.24.52-.57.93-1,1.22l1.48,1.16-.85.72-1.79-1.42c-.29.05-.57.08-.83.08-1.04,0-1.85-.32-2.45-.95-.59-.63-.9-1.52-.91-2.66v-1.57c0-1.16.29-2.07.88-2.72.59-.65,1.41-.97,2.46-.97s1.88.31,2.47.95c.58.63.88,1.53.89,2.69v1.54ZM165.72,129.75c0-.91-.17-1.59-.52-2.03-.34-.45-.88-.67-1.59-.67s-1.2.22-1.56.68c-.35.45-.53,1.11-.54,1.99v1.54c0,.89.18,1.56.53,2.02s.88.69,1.58.69,1.21-.21,1.55-.63c.34-.42.52-1.06.54-1.94v-1.65Z"/>
  <path class="cls-1" d="M174.9,126.19v6.13c0,.82-.28,1.46-.82,1.92-.54.46-1.29.69-2.25.69s-1.74-.23-2.26-.68c-.52-.45-.78-1.1-.79-1.94v-6.13h1.24v6.09c0,.58.14,1.01.43,1.3.29.29.75.43,1.38.43s1.1-.14,1.38-.43c.29-.28.43-.72.43-1.3v-6.09h1.26Z"/>
  <rect class="cls-1" x="176.88" y="126.19" width="1.25" height="8.63"/>
  <polygon class="cls-1" points="186.84 134.82 185.58 134.82 181.59 128.17 181.59 134.82 180.33 134.82 180.33 126.19 181.59 126.19 185.59 132.87 185.59 126.19 186.84 126.19 186.84 134.82"/>
  <path class="cls-1" d="M193.77,132.56h-3.37l-.77,2.26h-1.29l3.21-8.63h1.07l3.22,8.63h-1.29l-.79-2.26ZM190.74,131.63h2.72l-1.36-3.92-1.35,3.92Z"/>
  <path class="cls-1" d="M200.21,131.33h-1.75v3.49h-1.26v-8.63h2.79c.98,0,1.72.22,2.22.66.5.44.75,1.09.75,1.94,0,.53-.14,1-.41,1.39-.27.4-.66.7-1.15.9l1.93,3.67v.07h-1.35l-1.77-3.49ZM198.46,130.4h1.52c.53,0,.95-.15,1.26-.44.31-.29.47-.69.47-1.18,0-1.11-.58-1.66-1.74-1.66h-1.5v3.28Z"/>
  <rect class="cls-1" x="204.69" y="126.19" width="1.25" height="8.63"/>
  <path class="cls-1" d="M212.9,132.56h-3.37l-.77,2.26h-1.29l3.21-8.63h1.07l3.22,8.63h-1.29l-.79-2.26ZM209.87,131.63h2.72l-1.36-3.92-1.35,3.92Z"/>
  <path class="cls-1" d="M220.68,132.64c0-.43-.14-.76-.4-.99-.27-.23-.75-.45-1.46-.67-.7-.22-1.24-.45-1.61-.68-.37-.24-.65-.51-.84-.82-.18-.31-.28-.66-.28-1.05,0-.68.27-1.25.79-1.69.53-.44,1.22-.66,2.07-.66.58,0,1.1.11,1.56.34.45.23.81.54,1.05.94.24.4.37.84.37,1.33h-1.26c0-.53-.15-.95-.44-1.24-.3-.29-.72-.44-1.28-.44-.51,0-.9.12-1.18.37-.28.25-.42.59-.42,1.03,0,.36.15.67.45.91.3.25.77.47,1.39.66.98.28,1.68.63,2.1,1.04.42.41.63.95.63,1.61,0,.7-.26,1.26-.78,1.68-.53.42-1.24.63-2.14.63-.58,0-1.11-.11-1.6-.33-.49-.22-.88-.53-1.16-.92-.28-.4-.42-.85-.42-1.36h1.26c0,.53.17.95.52,1.24.34.3.81.45,1.4.45.55,0,.97-.12,1.25-.37.28-.25.42-.58.42-1"/>
</svg>